<svg xmlns="http://www.w3.org/2000/svg"><symbol viewBox="128 128 24 24" id="completed"><title>completed</title><path d="M149 130.1h-1.8v1.8c0 1-.8 1.8-1.8 1.8s-1.8-.8-1.8-1.8v-1.8h-7.2v1.8c0 1-.8 1.8-1.8 1.8s-1.8-.8-1.8-1.8v-1.8H131c-1.5 0-2.7 1.2-2.7 2.7V149c0 1.5 1.2 2.7 2.7 2.7h18c1.5 0 2.7-1.2 2.7-2.7v-16.2c0-1.5-1.2-2.7-2.7-2.7zm.9 18.9c0 .5-.4.9-.9.9h-18c-.5 0-.9-.4-.9-.9v-13.5h19.7l.1 13.5zM134.6 132.8c.5 0 .9-.4.9-.9v-2.7c0-.5-.4-.9-.9-.9s-.9.4-.9.9v2.7c0 .6.4.9.9.9zM145.4 132.8c.5 0 .9-.4.9-.9v-2.7c0-.5-.4-.9-.9-.9s-.9.4-.9.9v2.7c0 .6.4.9.9.9z"/><path fill="currentColor" d="M145 138.3l-.6-.5-.4.4-1.1 1-.2.3-1 1-1 1-1.1 1-1 1.1-1 1-1.7-1.8-.5-.4-.6.5-.9.9.9.9 1.1 1.1 1 1 .7.7.9-.9.6-.6.4-.4 1.1-1 1-1 1-1.1 1.4-1.4 1-1 .9-.9z"/></symbol><symbol viewBox="1 1 24 24" id="late"><title>late</title><path d="M6.8 10.9c.2.2.5.2.6.1l1.3-1.2h.2c.5 0 1-.4 1-1 0-.3-.1-.6-.4-.7l-.2-3c0-.2-.2-.3-.4-.3-.3 0-.4.2-.4.3l-.1 3c-.3.2-.5.5-.5.8V9l-1.2 1.4c0 .1-.1.3.1.5z"/><path fill="currentColor" d="M23.3 21.2L16.5 10c-.8-1.4-2.2-1.4-3 0L6.8 21.2c-.8 1.4-.2 2.5 1.5 2.5h13.5c1.7 0 2.4-1.2 1.5-2.5zm-9.1-8.1c.2-.2.6-.4.9-.4.4 0 .7.2.9.4.2.2.3.6.3.9 0 .3-.5 2.7-.7 4.4h-1.2c-.2-1.7-.7-4.1-.7-4.4s.2-.7.5-.9zm1.8 8.2c-.2.2-.6.3-.9.3-.3 0-.7-.1-.9-.3s-.4-.5-.4-.9c0-.3.2-.7.4-.9.2-.2.6-.3.9-.3.3 0 .7.1.9.3.2.2.4.6.4.9 0 .4-.2.6-.4.9z"/><path d="M9.3 15.5l1.1-1.9c-.6.2-1.1.2-1.6.2-2.6 0-4.8-2.2-4.8-4.9S6.2 4 8.9 4c2.5 0 4.7 2 4.9 4.5.3-.2.8-.4 1.2-.4h.3c-.3-3.3-3.1-5.8-6.4-5.8-3.6 0-6.6 3-6.6 6.6s3 6.6 6.6 6.6h.4z"/></symbol><symbol viewBox="128 128 24 24" id="overdue"><title>overdue</title><g fill="currentColor"><path d="M140.7 143.5c.3-2 .8-4.3.8-4.6 0-.4-.2-.8-.4-1.1s-.6-.4-1.1-.4-.8.2-1.1.4-.3.6-.3 1.1.6 2.6.8 4.6h1.3zM140 145.2c-.4 0-.7.1-1 .4-.3.3-.4.6-.4 1s.1.7.4 1c.3.3.6.3 1 .3s.7-.1 1-.3c.3-.3.4-.6.4-1 0-.3-.1-.7-.4-1-.3-.3-.6-.4-1-.4z"/></g><path d="M148.8 130.4H147v1.8c0 1-.8 1.8-1.8 1.8s-1.8-.8-1.8-1.8v-1.8h-7v1.8c0 1-.8 1.8-1.8 1.8s-1.8-.8-1.8-1.8v-1.8H131c-1.5 0-2.6 1.1-2.6 2.6v15.8c0 1.5 1.1 2.6 2.6 2.6h17.5c1.5 0 2.6-1.1 2.6-2.6V133c.3-1.5-.9-2.6-2.3-2.6zm.8 18.4c0 .5-.3.9-.9.9h-17.5c-.5 0-.9-.3-.9-.9v-13.1h19.2v13.1zM134.8 133c.5 0 .9-.4.9-.9v-2.6c0-.5-.4-.9-.9-.9s-.9.4-.9.9v2.6c0 .5.3.9.9.9zM145.2 133c.5 0 .9-.4.9-.9v-2.6c0-.5-.3-.9-.9-.9-.5 0-.9.4-.9.9v2.6c.1.5.4.9.9.9z"/></symbol><symbol viewBox="24.1 38 24 24" id="take-survey"><title>take-survey</title><path d="M43.5 41.4h-2.6c-.1-.6-.6-1-1.2-1h-2v-.3c0-.9-.7-1.6-1.6-1.6-.9 0-1.6.7-1.6 1.6v.3h-2c-.6 0-1.1.4-1.2 1h-2.6c-.5 0-1 .4-1 1v18.2c0 .5.4 1 1 1h14.7c.5 0 1-.4 1-1V42.3c0-.5-.4-.9-.9-.9zm-8.3-1.3c0-.5.4-1 1-1 .5 0 1 .4 1 1 0 .1 0 .2-.1.3-.1.4-.5.6-.9.6s-.8-.3-.9-.6c-.1-.1-.1-.2-.1-.3zm8 19.5H29.1v-17h2.2v1h9.6V42.7h2.2l.1 16.9zM30.4 55.8h11.5v.6H30.4zM30.4 53.8h11.5v.6H30.4zM30.4 57.7h11.5v.6H30.4z"/><path fill="currentColor" d="M35.8 51.5l-2.2-2.2 1.2-1.2 1 1.1 2.3-2.3 1.1 1.2z"/></symbol><symbol viewBox="38 38 24 24" id="view-completed"><title>view-completed</title><path fill="currentColor" d="M57 41.8l.9-.9 1.9-1.7c.3-.3.9-.3 1.2 0 .3.3.3.8 0 1.1l-.1.1-1.7 1.7-.9.9-.8 1c-.5.6-1.1 1.2-1.6 1.9l-1.5 1.9c-.5.7-1 1.3-1.4 2-.5.7-.9 1.4-1.4 2-.9 1.4-1.8 2.8-2.6 4.2l-.1.1c-.4.5-1.1.7-1.6.3-.2-.1-.3-.3-.4-.4l-3.8-7c-.2-.4-.1-.9.3-1.1.4-.2.8-.1 1.1.3l3.4 5.1 1.8-2.7c.5-.7 1-1.4 1.5-2 .5-.7 1-1.3 1.6-2l1.6-1.9c.5-.7 1.1-1.2 1.7-1.9l.9-1z"/><path d="M40 61c-.7 0-1.2-.5-1.2-1.2V42.2c0-.7.5-1.2 1.2-1.2h16.1l-.9.9-.6.6c-.3.3-.5.6-.8.8H41.2v15.2h15.2V47.2l.5-.6c.3-.4.6-.8 1-1.1.2-.2.4-.5.6-.7l.4-.5v15.5c0 .7-.5 1.2-1.2 1.2H40z"/></symbol><symbol viewBox="38 38 24 24" id="view-trending"><title>view-trending</title><path d="M41.6 58.4V39.2h-2.4v21.6h21.6v-2.4z"/><path fill="currentColor" d="M54.5 44.3l1.7 1.3-3.5 4.1-3.8-3-5.5 6.4 1.3 1.2 4.4-5.1 3.9 3.1 4.6-5.6 1.6 1.3v-4.9z"/></symbol></svg>