<svg xmlns="http://www.w3.org/2000/svg">
  <symbol viewBox="128 128 24 24" id="completed">
    <title>completed</title>
    <path d="M149,130.1h-1.8v1.8c0,1-0.8,1.8-1.8,1.8s-1.8-0.8-1.8-1.8v-1.8h-7.2v1.8c0,1-0.8,1.8-1.8,1.8s-1.8-0.8-1.8-1.8v-1.8H131

	c-1.5,0-2.7,1.2-2.7,2.7V149c0,1.5,1.2,2.7,2.7,2.7h18c1.5,0,2.7-1.2,2.7-2.7v-16.2C151.7,131.3,150.5,130.1,149,130.1z M149.9,149

	c0,0.5-0.4,0.9-0.9,0.9h-18c-0.5,0-0.9-0.4-0.9-0.9v-13.5h19.7L149.9,149L149.9,149z" />
    <g>
      <path d="M134.6,132.8c0.5,0,0.9-0.4,0.9-0.9v-2.7c0-0.5-0.4-0.9-0.9-0.9c-0.5,0-0.9,0.4-0.9,0.9v2.7

		C133.7,132.5,134.1,132.8,134.6,132.8z" />
      <path d="M145.4,132.8c0.5,0,0.9-0.4,0.9-0.9v-2.7c0-0.5-0.4-0.9-0.9-0.9c-0.5,0-0.9,0.4-0.9,0.9v2.7

		C144.5,132.5,144.9,132.8,145.4,132.8z" /> </g>
    <g>
      <polygon fill="currentColor" points="145,138.3 144.4,137.8 144,138.2 142.9,139.2 142.7,139.5 141.7,140.5 140.7,141.5 139.6,142.5 138.6,143.6 

		137.6,144.6 135.9,142.8 135.4,142.4 134.8,142.9 133.9,143.8 134.8,144.7 135.9,145.8 136.9,146.8 137.6,147.5 138.5,146.6 

		139.1,146 139.5,145.6 140.6,144.6 141.6,143.6 142.6,142.5 144,141.1 145,140.1 145.9,139.2 	" /> </g>
  </symbol>
  <symbol viewBox="1 1 24 24" id="late">
    <title>late</title>
    <g>
      <path d="M6.8,10.9c0.2,0.2,0.5,0.2,0.6,0.1l1.3-1.2c0.1,0,0.1,0,0.2,0c0.5,0,1-0.4,1-1c0-0.3-0.1-0.6-0.4-0.7l-0.2-3

		c0-0.2-0.2-0.3-0.4-0.3C8.6,4.8,8.5,5,8.5,5.1l-0.1,3C8.1,8.3,7.9,8.6,7.9,8.9c0,0,0,0.1,0,0.1l-1.2,1.4

		C6.7,10.5,6.6,10.7,6.8,10.9z" />
      <path fill="currentColor" d="M23.3,21.2L16.5,10c-0.8-1.4-2.2-1.4-3,0L6.8,21.2c-0.8,1.4-0.2,2.5,1.5,2.5h13.5C23.5,23.7,24.2,22.5,23.3,21.2z

		 M14.2,13.1c0.2-0.2,0.6-0.4,0.9-0.4c0.4,0,0.7,0.2,0.9,0.4c0.2,0.2,0.3,0.6,0.3,0.9c0,0.3-0.5,2.7-0.7,4.4h-1.2

		c-0.2-1.7-0.7-4.1-0.7-4.4S13.9,13.3,14.2,13.1z M16,21.3c-0.2,0.2-0.6,0.3-0.9,0.3c-0.3,0-0.7-0.1-0.9-0.3s-0.4-0.5-0.4-0.9

		c0-0.3,0.2-0.7,0.4-0.9c0.2-0.2,0.6-0.3,0.9-0.3c0.3,0,0.7,0.1,0.9,0.3c0.2,0.2,0.4,0.6,0.4,0.9C16.4,20.8,16.2,21,16,21.3z" />
      <path d="M9.3,15.5l1.1-1.9c-0.6,0.2-1.1,0.2-1.6,0.2C6.2,13.8,4,11.6,4,8.9S6.2,4,8.9,4c2.5,0,4.7,2,4.9,4.5

		c0.3-0.2,0.8-0.4,1.2-0.4c0.1,0,0.2,0,0.3,0C15,4.8,12.2,2.3,8.9,2.3c-3.6,0-6.6,3-6.6,6.6s3,6.6,6.6,6.6

		C9.1,15.5,9.1,15.5,9.3,15.5z" /> </g>
  </symbol>
  <symbol viewBox="128 128 24 24" id="overdue">
    <title>overdue</title>
    <g>
      <path fill="currentColor" d="M140.7,143.5c0.3-2,0.8-4.3,0.8-4.6c0-0.4-0.2-0.8-0.4-1.1s-0.6-0.4-1.1-0.4s-0.8,0.2-1.1,0.4s-0.3,0.6-0.3,1.1

		s0.6,2.6,0.8,4.6H140.7z" />
      <path fill="currentColor" d="M140,145.2c-0.4,0-0.7,0.1-1,0.4c-0.3,0.3-0.4,0.6-0.4,1c0,0.4,0.1,0.7,0.4,1c0.3,0.3,0.6,0.3,1,0.3s0.7-0.1,1-0.3

		c0.3-0.3,0.4-0.6,0.4-1c0-0.3-0.1-0.7-0.4-1C140.7,145.3,140.4,145.2,140,145.2z" /> </g>
    <path d="M148.8,130.4H147v1.8c0,1-0.8,1.8-1.8,1.8c-1,0-1.8-0.8-1.8-1.8v-1.8h-7v1.8c0,1-0.8,1.8-1.8,1.8s-1.8-0.8-1.8-1.8v-1.8

	h-1.8c-1.5,0-2.6,1.1-2.6,2.6v15.8c0,1.5,1.1,2.6,2.6,2.6h17.5c1.5,0,2.6-1.1,2.6-2.6V133C151.4,131.5,150.2,130.4,148.8,130.4z

	 M149.6,148.8c0,0.5-0.3,0.9-0.9,0.9h-17.5c-0.5,0-0.9-0.3-0.9-0.9v-13.1h19.2V148.8z" />
    <g>
      <path d="M134.8,133c0.5,0,0.9-0.4,0.9-0.9v-2.6c0-0.5-0.4-0.9-0.9-0.9s-0.9,0.4-0.9,0.9v2.6C133.9,132.6,134.2,133,134.8,133z" />
      <path d="M145.2,133c0.5,0,0.9-0.4,0.9-0.9v-2.6c0-0.5-0.3-0.9-0.9-0.9c-0.5,0-0.9,0.4-0.9,0.9v2.6C144.4,132.6,144.7,133,145.2,133

		z" /> </g>
  </symbol>
  <symbol viewBox="24.1 38 24 24" id="take-survey">
    <title>take-survey</title>
    <path d="M43.5,41.4h-2.6c-0.1-0.6-0.6-1-1.2-1h-2c0-0.1,0-0.2,0-0.3c0-0.9-0.7-1.6-1.6-1.6c-0.9,0-1.6,0.7-1.6,1.6

	c0,0.1,0,0.2,0,0.3h-2c-0.6,0-1.1,0.4-1.2,1h-2.6c-0.5,0-1,0.4-1,1v18.2c0,0.5,0.4,1,1,1h14.7c0.5,0,1-0.4,1-1V42.3

	C44.4,41.8,44,41.4,43.5,41.4z M35.2,40.1c0-0.5,0.4-1,1-1c0.5,0,1,0.4,1,1c0,0.1,0,0.2-0.1,0.3c-0.1,0.4-0.5,0.6-0.9,0.6

	c-0.4,0-0.8-0.3-0.9-0.6C35.2,40.3,35.2,40.2,35.2,40.1z M43.2,59.6H29.1v-17h2.2V43v0.6h9.6V43v-0.3h2.2L43.2,59.6L43.2,59.6z" />
    <rect x="30.4" y="55.8" width="11.5" height="0.6" />
    <rect x="30.4" y="53.8" width="11.5" height="0.6" />
    <rect x="30.4" y="57.7" width="11.5" height="0.6" />
    <polygon fill="currentColor" points="35.8,51.5 33.6,49.3 34.8,48.1 35.8,49.2 38.1,46.9 39.2,48.1 " /> </symbol>
  <symbol viewBox="38 38 24 24" id="view-completed">
    <title>view-completed</title>
    <path fill="currentColor" d="M57,41.8c0.3-0.3,0.6-0.6,0.9-0.9l1.9-1.7c0.3-0.3,0.9-0.3,1.2,0c0.3,0.3,0.3,0.8,0,1.1l-0.1,0.1l-1.7,1.7

	c-0.3,0.3-0.6,0.6-0.9,0.9L57.5,44c-0.5,0.6-1.1,1.2-1.6,1.9l-1.5,1.9c-0.5,0.7-1,1.3-1.4,2c-0.5,0.7-0.9,1.4-1.4,2

	c-0.9,1.4-1.8,2.8-2.6,4.2l-0.1,0.1c-0.4,0.5-1.1,0.7-1.6,0.3c-0.2-0.1-0.3-0.3-0.4-0.4l-3.8-7c-0.2-0.4-0.1-0.9,0.3-1.1

	c0.4-0.2,0.8-0.1,1.1,0.3l3.4,5.1c0.6-0.9,1.2-1.8,1.8-2.7c0.5-0.7,1-1.4,1.5-2c0.5-0.7,1-1.3,1.6-2l1.6-1.9

	c0.5-0.7,1.1-1.2,1.7-1.9L57,41.8z" />
    <path d="M40,61c-0.7,0-1.2-0.5-1.2-1.2V42.2c0-0.7,0.5-1.2,1.2-1.2h16.1l-0.9,0.9c-0.2,0.2-0.4,0.4-0.6,0.6

	c-0.3,0.3-0.5,0.6-0.8,0.8H41.2v15.2h15.2V47.2l0.5-0.6c0.3-0.4,0.6-0.8,1-1.1c0.2-0.2,0.4-0.5,0.6-0.7l0.4-0.5v15.5

	c0,0.7-0.5,1.2-1.2,1.2L40,61L40,61z" /> </symbol>
  <symbol viewBox="38 38 24 24" id="view-trending">
    <title>view-trending</title>
    <polygon points="41.6,58.4 41.6,39.2 39.2,39.2 39.2,60.8 60.8,60.8 60.8,58.4 " />
    <polygon fill="currentColor" points="54.5,44.3 56.2,45.6 52.7,49.7 48.9,46.7 43.4,53.1 44.7,54.3 49.1,49.2 53,52.3 57.6,46.7 59.2,48 59.2,43.1 " /> </symbol>
</svg>