<?xml version="1.0" encoding="utf-8"?>
<!-- Generator: Adobe Illustrator 18.0.0, SVG Export Plug-In . SVG Version: 6.00 Build 0)  -->
<!DOCTYPE svg PUBLIC "-//W3C//DTD SVG 1.1//EN" "http://www.w3.org/Graphics/SVG/1.1/DTD/svg11.dtd">
<svg version="1.1" id="Layer_1" xmlns="http://www.w3.org/2000/svg" xmlns:xlink="http://www.w3.org/1999/xlink" x="0px" y="0px"
	 viewBox="128 128 24 24" enable-background="new 128 128 24 24" xml:space="preserve">
<path d="M149,130.1h-1.8v1.8c0,1-0.8,1.8-1.8,1.8s-1.8-0.8-1.8-1.8v-1.8h-7.2v1.8c0,1-0.8,1.8-1.8,1.8s-1.8-0.8-1.8-1.8v-1.8H131
	c-1.5,0-2.7,1.2-2.7,2.7V149c0,1.5,1.2,2.7,2.7,2.7h18c1.5,0,2.7-1.2,2.7-2.7v-16.2C151.7,131.3,150.5,130.1,149,130.1z M149.9,149
	c0,0.5-0.4,0.9-0.9,0.9h-18c-0.5,0-0.9-0.4-0.9-0.9v-13.5h19.7L149.9,149L149.9,149z"/>
<g>
	<path d="M134.6,132.8c0.5,0,0.9-0.4,0.9-0.9v-2.7c0-0.5-0.4-0.9-0.9-0.9c-0.5,0-0.9,0.4-0.9,0.9v2.7
		C133.7,132.5,134.1,132.8,134.6,132.8z"/>
	<path d="M145.4,132.8c0.5,0,0.9-0.4,0.9-0.9v-2.7c0-0.5-0.4-0.9-0.9-0.9c-0.5,0-0.9,0.4-0.9,0.9v2.7
		C144.5,132.5,144.9,132.8,145.4,132.8z"/>
</g>
<g>
	<polygon fill="currentColor" points="145,138.3 144.4,137.8 144,138.2 142.9,139.2 142.7,139.5 141.7,140.5 140.7,141.5 139.6,142.5 138.6,143.6 
		137.6,144.6 135.9,142.8 135.4,142.4 134.8,142.9 133.9,143.8 134.8,144.7 135.9,145.8 136.9,146.8 137.6,147.5 138.5,146.6 
		139.1,146 139.5,145.6 140.6,144.6 141.6,143.6 142.6,142.5 144,141.1 145,140.1 145.9,139.2 	"/>
</g>
</svg>
