<?xml version="1.0" encoding="utf-8"?>
<!-- Generator: Adobe Illustrator 18.0.0, SVG Export Plug-In . SVG Version: 6.00 Build 0)  -->
<!DOCTYPE svg PUBLIC "-//W3C//DTD SVG 1.1//EN" "http://www.w3.org/Graphics/SVG/1.1/DTD/svg11.dtd">
<svg version="1.1" id="Layer_1" xmlns="http://www.w3.org/2000/svg" xmlns:xlink="http://www.w3.org/1999/xlink" x="0px" y="0px"
	 viewBox="1 1 24 24" enable-background="new 1 1 24 24" xml:space="preserve">
<g>
	<path d="M6.8,10.9c0.2,0.2,0.5,0.2,0.6,0.1l1.3-1.2c0.1,0,0.1,0,0.2,0c0.5,0,1-0.4,1-1c0-0.3-0.1-0.6-0.4-0.7l-0.2-3
		c0-0.2-0.2-0.3-0.4-0.3C8.6,4.8,8.5,5,8.5,5.1l-0.1,3C8.1,8.3,7.9,8.6,7.9,8.9c0,0,0,0.1,0,0.1l-1.2,1.4
		C6.7,10.5,6.6,10.7,6.8,10.9z"/>
	<path fill="currentColor" d="M23.3,21.2L16.5,10c-0.8-1.4-2.2-1.4-3,0L6.8,21.2c-0.8,1.4-0.2,2.5,1.5,2.5h13.5C23.5,23.7,24.2,22.5,23.3,21.2z
		 M14.2,13.1c0.2-0.2,0.6-0.4,0.9-0.4c0.4,0,0.7,0.2,0.9,0.4c0.2,0.2,0.3,0.6,0.3,0.9c0,0.3-0.5,2.7-0.7,4.4h-1.2
		c-0.2-1.7-0.7-4.1-0.7-4.4S13.9,13.3,14.2,13.1z M16,21.3c-0.2,0.2-0.6,0.3-0.9,0.3c-0.3,0-0.7-0.1-0.9-0.3s-0.4-0.5-0.4-0.9
		c0-0.3,0.2-0.7,0.4-0.9c0.2-0.2,0.6-0.3,0.9-0.3c0.3,0,0.7,0.1,0.9,0.3c0.2,0.2,0.4,0.6,0.4,0.9C16.4,20.8,16.2,21,16,21.3z"/>
	<path d="M9.3,15.5l1.1-1.9c-0.6,0.2-1.1,0.2-1.6,0.2C6.2,13.8,4,11.6,4,8.9S6.2,4,8.9,4c2.5,0,4.7,2,4.9,4.5
		c0.3-0.2,0.8-0.4,1.2-0.4c0.1,0,0.2,0,0.3,0C15,4.8,12.2,2.3,8.9,2.3c-3.6,0-6.6,3-6.6,6.6s3,6.6,6.6,6.6
		C9.1,15.5,9.1,15.5,9.3,15.5z"/>
</g>
</svg>
