<?xml version="1.0" encoding="utf-8"?>
<!-- Generator: Adobe Illustrator 18.0.0, SVG Export Plug-In . SVG Version: 6.00 Build 0)  -->
<!DOCTYPE svg PUBLIC "-//W3C//DTD SVG 1.1//EN" "http://www.w3.org/Graphics/SVG/1.1/DTD/svg11.dtd">
<svg version="1.1" id="Layer_1" xmlns="http://www.w3.org/2000/svg" xmlns:xlink="http://www.w3.org/1999/xlink" x="0px" y="0px"
	 viewBox="128 128 24 24" enable-background="new 128 128 24 24" xml:space="preserve">
<g>
	<path fill="currentColor" d="M140.7,143.5c0.3-2,0.8-4.3,0.8-4.6c0-0.4-0.2-0.8-0.4-1.1s-0.6-0.4-1.1-0.4s-0.8,0.2-1.1,0.4s-0.3,0.6-0.3,1.1
		s0.6,2.6,0.8,4.6H140.7z"/>
	<path fill="currentColor" d="M140,145.2c-0.4,0-0.7,0.1-1,0.4c-0.3,0.3-0.4,0.6-0.4,1c0,0.4,0.1,0.7,0.4,1c0.3,0.3,0.6,0.3,1,0.3s0.7-0.1,1-0.3
		c0.3-0.3,0.4-0.6,0.4-1c0-0.3-0.1-0.7-0.4-1C140.7,145.3,140.4,145.2,140,145.2z"/>
</g>
<path d="M148.8,130.4H147v1.8c0,1-0.8,1.8-1.8,1.8c-1,0-1.8-0.8-1.8-1.8v-1.8h-7v1.8c0,1-0.8,1.8-1.8,1.8s-1.8-0.8-1.8-1.8v-1.8
	h-1.8c-1.5,0-2.6,1.1-2.6,2.6v15.8c0,1.5,1.1,2.6,2.6,2.6h17.5c1.5,0,2.6-1.1,2.6-2.6V133C151.4,131.5,150.2,130.4,148.8,130.4z
	 M149.6,148.8c0,0.5-0.3,0.9-0.9,0.9h-17.5c-0.5,0-0.9-0.3-0.9-0.9v-13.1h19.2V148.8z"/>
<g>
	<path d="M134.8,133c0.5,0,0.9-0.4,0.9-0.9v-2.6c0-0.5-0.4-0.9-0.9-0.9s-0.9,0.4-0.9,0.9v2.6C133.9,132.6,134.2,133,134.8,133z"/>
	<path d="M145.2,133c0.5,0,0.9-0.4,0.9-0.9v-2.6c0-0.5-0.3-0.9-0.9-0.9c-0.5,0-0.9,0.4-0.9,0.9v2.6C144.4,132.6,144.7,133,145.2,133
		z"/>
</g>
</svg>
