<?xml version="1.0" encoding="utf-8"?>
<!-- Generator: Adobe Illustrator 18.0.0, SVG Export Plug-In . SVG Version: 6.00 Build 0)  -->
<!DOCTYPE svg PUBLIC "-//W3C//DTD SVG 1.1//EN" "http://www.w3.org/Graphics/SVG/1.1/DTD/svg11.dtd">
<svg version="1.1" id="Layer_1" xmlns="http://www.w3.org/2000/svg" xmlns:xlink="http://www.w3.org/1999/xlink" x="0px" y="0px"
	 viewBox="24.1 38 24 24" enable-background="new 24.1 38 24 24" xml:space="preserve">
<path d="M43.5,41.4h-2.6c-0.1-0.6-0.6-1-1.2-1h-2c0-0.1,0-0.2,0-0.3c0-0.9-0.7-1.6-1.6-1.6c-0.9,0-1.6,0.7-1.6,1.6
	c0,0.1,0,0.2,0,0.3h-2c-0.6,0-1.1,0.4-1.2,1h-2.6c-0.5,0-1,0.4-1,1v18.2c0,0.5,0.4,1,1,1h14.7c0.5,0,1-0.4,1-1V42.3
	C44.4,41.8,44,41.4,43.5,41.4z M35.2,40.1c0-0.5,0.4-1,1-1c0.5,0,1,0.4,1,1c0,0.1,0,0.2-0.1,0.3c-0.1,0.4-0.5,0.6-0.9,0.6
	c-0.4,0-0.8-0.3-0.9-0.6C35.2,40.3,35.2,40.2,35.2,40.1z M43.2,59.6H29.1v-17h2.2V43v0.6h9.6V43v-0.3h2.2L43.2,59.6L43.2,59.6z"/>
<rect x="30.4" y="55.8" width="11.5" height="0.6"/>
<rect x="30.4" y="53.8" width="11.5" height="0.6"/>
<rect x="30.4" y="57.7" width="11.5" height="0.6"/>
<polygon fill="currentColor" points="35.8,51.5 33.6,49.3 34.8,48.1 35.8,49.2 38.1,46.9 39.2,48.1 "/>
</svg>
