<?xml version="1.0" encoding="utf-8"?>
<!-- Generator: Adobe Illustrator 18.0.0, SVG Export Plug-In . SVG Version: 6.00 Build 0)  -->
<!DOCTYPE svg PUBLIC "-//W3C//DTD SVG 1.1//EN" "http://www.w3.org/Graphics/SVG/1.1/DTD/svg11.dtd">
<svg version="1.1" id="Layer_1" xmlns="http://www.w3.org/2000/svg" xmlns:xlink="http://www.w3.org/1999/xlink" x="0px" y="0px"
	 viewBox="38 38 24 24" enable-background="new 38 38 24 24" xml:space="preserve">
<g id="Captions">
</g>
<path fill="currentColor" d="M57,41.8c0.3-0.3,0.6-0.6,0.9-0.9l1.9-1.7c0.3-0.3,0.9-0.3,1.2,0c0.3,0.3,0.3,0.8,0,1.1l-0.1,0.1l-1.7,1.7
	c-0.3,0.3-0.6,0.6-0.9,0.9L57.5,44c-0.5,0.6-1.1,1.2-1.6,1.9l-1.5,1.9c-0.5,0.7-1,1.3-1.4,2c-0.5,0.7-0.9,1.4-1.4,2
	c-0.9,1.4-1.8,2.8-2.6,4.2l-0.1,0.1c-0.4,0.5-1.1,0.7-1.6,0.3c-0.2-0.1-0.3-0.3-0.4-0.4l-3.8-7c-0.2-0.4-0.1-0.9,0.3-1.1
	c0.4-0.2,0.8-0.1,1.1,0.3l3.4,5.1c0.6-0.9,1.2-1.8,1.8-2.7c0.5-0.7,1-1.4,1.5-2c0.5-0.7,1-1.3,1.6-2l1.6-1.9
	c0.5-0.7,1.1-1.2,1.7-1.9L57,41.8z"/>
<path d="M40,61c-0.7,0-1.2-0.5-1.2-1.2V42.2c0-0.7,0.5-1.2,1.2-1.2h16.1l-0.9,0.9c-0.2,0.2-0.4,0.4-0.6,0.6
	c-0.3,0.3-0.5,0.6-0.8,0.8H41.2v15.2h15.2V47.2l0.5-0.6c0.3-0.4,0.6-0.8,1-1.1c0.2-0.2,0.4-0.5,0.6-0.7l0.4-0.5v15.5
	c0,0.7-0.5,1.2-1.2,1.2L40,61L40,61z"/>
</svg>
